<?xml version="1.0" encoding="UTF-8" standalone="no"?>
<svg
   xmlns:dc="http://purl.org/dc/elements/1.1/"
   xmlns:cc="http://creativecommons.org/ns#"
   xmlns:rdf="http://www.w3.org/1999/02/22-rdf-syntax-ns#"
   xmlns:svg="http://www.w3.org/2000/svg"
   xmlns="http://www.w3.org/2000/svg"
   xmlns:sodipodi="http://sodipodi.sourceforge.net/DTD/sodipodi-0.dtd"
   xmlns:inkscape="http://www.inkscape.org/namespaces/inkscape"
   sodipodi:docname="logo_isitar.svg"
   inkscape:version="1.0beta2 (unknown)"
   id="svg8"
   version="1.1"
   viewBox="0 0 120 99.999999"
   height="100mm"
   width="120mm">
  <defs
     id="defs2" />
  <sodipodi:namedview
     inkscape:lockguides="false"
     units="mm"
     inkscape:window-maximized="1"
     inkscape:window-y="216"
     inkscape:window-x="2560"
     inkscape:window-height="1011"
     inkscape:window-width="1920"
     inkscape:snap-global="false"
     inkscape:object-paths="false"
     inkscape:snap-text-baseline="false"
     showborder="true"
     showguides="true"
     showgrid="false"
     inkscape:document-rotation="0"
     inkscape:current-layer="layer1"
     inkscape:document-units="mm"
     inkscape:cy="223.868"
     inkscape:cx="1007.4664"
     inkscape:zoom="0.5"
     inkscape:pageshadow="2"
     inkscape:pageopacity="0.0"
     borderopacity="1.0"
     bordercolor="#666666"
     pagecolor="#ffffff"
     id="base">
    <inkscape:grid
       id="grid493"
       type="xygrid" />
  </sodipodi:namedview>
  <metadata
     id="metadata5">
    <rdf:RDF>
      <cc:Work
         rdf:about="">
        <dc:format>image/svg+xml</dc:format>
        <dc:type
           rdf:resource="http://purl.org/dc/dcmitype/StillImage" />
        <dc:title></dc:title>
      </cc:Work>
    </rdf:RDF>
  </metadata>
  <g
     id="layer1"
     inkscape:groupmode="layer"
     inkscape:label="Layer 1">
    <g
       style="font-style:normal;font-weight:normal;font-size:136.135px;line-height:1.25;font-family:sans-serif;fill:#000000;fill-opacity:1;stroke:none;stroke-width:3.40339"
       id="text466"
       transform="scale(0.96928086,1.0316927)"
       aria-label="I">
      <path
         inkscape:connector-curvature="0"
         transform="scale(0.2729687,0.25645556)"
         d="M 104.60156,0 0,104.60156 12.283203,116.88477 38.25,90.916016 c 6.853256,-6.853257 12.810935,-6.667587 20.105469,0.626953 l 87.929691,87.929691 c 6.08182,6.55887 6.3455,12.64213 -0.18164,19.18945 -0.0104,0.0105 -0.0188,0.0208 -0.0293,0.0312 l -87.718751,87.7168 c -6.910614,6.91066 -13.252213,7.48026 -20.105469,0.627 L 12.283203,261.06836 0,273.35156 104.60156,377.95312 116.88477,365.66992 90.916016,339.70117 c -6.853257,-6.85326 -6.283661,-13.19485 0.626953,-20.10547 l 97.433591,-97.43359 23.51953,-23.51953 c -3.3e-4,1.5e-4 -0.0195,0.01 -0.0195,0.01 6.32417,-6.32417 6.31332,-12.21365 0.84571,-18.51562 L 188.97656,155.78906 91.542969,58.355469 C 84.248432,51.060932 84.062759,45.103257 90.916016,38.25 L 116.88477,12.283203 Z"
         style="font-style:normal;font-variant:normal;font-weight:normal;font-stretch:normal;font-family:'Old Standard';-inkscape-font-specification:'Old Standard';stroke-width:13.1568"
         id="path472" />
    </g>
    <text
       id="text470"
       y="99.451103"
       x="30.899054"
       style="font-style:normal;font-weight:normal;font-size:38.7634px;line-height:1.25;font-family:sans-serif;fill:#000000;fill-opacity:1;stroke:none;stroke-width:0.969087"
       xml:space="preserve"><tspan
         style="stroke-width:0.969087"
         y="99.451103"
         x="30.899054"
         id="tspan468"
         sodipodi:role="line">sitar</tspan></text>
  </g>
</svg>
